<svg id="Layer_1" data-name="Layer 1" xmlns="http://www.w3.org/2000/svg" viewBox="0 0 981.36 877.91"><title>doubleArrowUpBlack</title><path d="M490.78.1c-13.3-.8-26.8,3.3-36.9,13.5L14.68,452.9a47.52,47.52,0,0,0,65.68,68.68l.84-.81.68-.67,408.9-408.78L899.58,520.1a47.55,47.55,0,0,0,68.47-66c-.39-.41-.79-.82-1.2-1.21L527.45,13.62C517.38,3.42,504-.68,490.78.1ZM453.85,357.6,14.65,796.9a47.59,47.59,0,0,0,67.2,67.4L490.78,455.42l408.8,408.9a47.62,47.62,0,0,0,67.27-67.4l-439.4-439.2c-10.1-10.1-23.5-14.2-36.7-13.3a47.09,47.09,0,0,0-36.9,13.2Z"/></svg>