<svg id="Layer_1" data-name="Layer 1" xmlns="http://www.w3.org/2000/svg" viewBox="0 0 878.17 980.03"><defs><style>.cls-1{fill:#fff;}</style></defs><title>doubleArrowBlacksvg</title><path class="cls-1" d="M61,500c-.8,13.3,3.3,26.8,13.5,36.9l439.3,439.2A47.52,47.52,0,1,0,581,908.9L172.22,500,581,91.2a47.55,47.55,0,1,0-67.2-67.3L74.52,463.3C64.32,473.4,60.22,486.8,61,500Zm357.5,36.9,439.3,439.2a47.59,47.59,0,0,0,67.4-67.2L516.32,500,925.22,91.2a47.62,47.62,0,0,0-67.4-67.3L418.62,463.3c-10.1,10.1-14.2,23.5-13.3,36.7A47.16,47.16,0,0,0,418.52,536.9Z" transform="translate(-60.92 -10.02)"/></svg>