<svg id="Layer_1" data-name="Layer 1" xmlns="http://www.w3.org/2000/svg" viewBox="0 0 980.43 878.24"><defs><style>.cls-1{fill:#fff;}</style></defs><title>doubleArrowWhite</title><path class="cls-1" d="M490.07,878.14c13.3.8,26.8-3.3,36.9-13.5l439.2-439.3a47.52,47.52,0,1,0-66.52-67.87l-.68.67L490.07,766.92,81.27,358.14A47.55,47.55,0,1,0,14,425.34l439.4,439.28C463.47,874.82,476.87,878.92,490.07,878.14ZM527,520.64l439.2-439.3A47.59,47.59,0,0,0,899,13.94L490.07,422.82,81.27,13.92A47.62,47.62,0,0,0,14,81.32l439.4,439.2c10.1,10.1,23.5,14.2,36.7,13.3a47.13,47.13,0,0,0,36.9-13.2Z"/></svg>